<svg width="102" height="105" viewBox="0 0 102 105" fill="none" xmlns="http://www.w3.org/2000/svg">
<g id="Group 58">
<path id="Vector" d="M83.2575 70.6242L56.4354 76.7708C55.6048 76.9646 54.8364 77.373 54.2204 77.9545L49.209 82.6613L27.2668 104.147C27.2668 104.147 17.0363 76.8331 16.6071 60.9406C16.5794 59.7154 17.4031 58.6425 18.5937 58.3795C21.9577 57.625 26.54 56.2753 28.4573 56.0884C28.9972 56.0399 29.5579 56.0399 30.0493 56.0607C30.8453 56.1022 31.4822 56.7252 31.5098 57.5212L31.586 59.217C31.586 59.4524 31.7867 59.6323 32.0221 59.6393C33.441 59.7016 41.7126 59.0786 50.0188 56.8567C50.0188 56.8567 63.551 64.0554 68.2787 73.3099C68.4863 73.7114 68.957 73.9052 69.3654 73.7183C70.8259 73.0538 74.1068 70.7904 76.9725 63.3771C76.9725 63.3771 76.9794 63.3701 76.9794 63.3632C78.4538 60.5114 79.5613 57.625 80.3919 54.8701C84.1366 59.6185 83.4444 68.1116 83.2575 70.6242Z" fill="#DDE4E9"/>
<path id="Vector_2" d="M100.909 69.683C100.909 69.683 100.874 69.7246 100.853 69.7523C99.7595 70.9913 95.9802 75.4628 90.5189 80.3634C83.1263 87.0015 74.2525 91.7706 64.6589 94.3248L55.086 96.872C53.8816 97.1904 52.6979 97.5504 51.5281 97.9588C46.3298 99.7792 30.5065 105.123 27.2671 104.147L34.4312 97.1351C34.4312 97.1351 34.4312 97.1351 34.4381 97.1212L49.2093 82.6615L54.2207 77.9546C54.8368 77.3732 55.6051 76.9648 56.4357 76.771L66.0294 74.5699L83.2579 70.6244L99.2265 66.9628C100.805 66.6028 101.961 68.4579 100.909 69.683Z" fill="#EBF0F2"/>
<path id="Vector_3" d="M35.4277 88.6072V88.6626C35.4277 88.6626 33.5796 77.1654 28.9835 72.86C28.755 72.6385 28.8865 72.2647 29.198 72.2232L32.9843 71.7871C35.2962 77.2069 35.6423 83.5958 35.4277 88.6072Z" fill="#C0CCD7"/>
<path id="Vector_4" d="M82.8978 38.5553C82.8978 40.7356 82.6902 47.3045 80.3921 54.87C79.5615 57.6249 78.454 60.5113 76.9797 63.3631C76.9797 63.3701 76.9727 63.3701 76.9727 63.377C75.9691 65.322 74.7924 67.2463 73.4218 69.1083C73.0896 69.5582 72.4182 69.5513 72.0859 69.1013C70.0163 66.2634 63.0391 57.7703 52.6909 56.0814H52.6978C52.864 55.7353 59.0244 43.269 57.1486 29.3838C57.0863 28.9478 57.4531 28.5809 57.8892 28.657C61.1909 29.2316 73.2003 31.6334 82.2541 37.3786C82.6556 37.6347 82.8978 38.0777 82.8978 38.5553Z" fill="#EBF0F2"/>
<path id="Vector_5" d="M78.5924 41.1371C78.5024 42.7222 78.1702 47.0553 76.9589 51.9905C76.7304 52.9319 76.4674 53.901 76.1698 54.87C75.886 55.8045 75.5607 56.7528 75.2007 57.6872C74.6816 59.0439 74.0863 60.3867 73.3941 61.6673C73.1795 62.0756 72.6189 62.1449 72.3005 61.8057C70.833 60.2552 66.8807 56.4413 61.2117 53.8248C60.7618 53.6172 60.3049 53.4164 59.8342 53.2226C59.1074 52.925 58.3599 52.6481 57.5846 52.4058C57.2593 52.302 57.0932 51.9421 57.2385 51.6306C57.4393 51.2222 57.7162 50.6131 58.0415 49.824C59.3082 46.7645 61.2255 41.0402 61.3432 34.3675C61.3501 34.0284 61.6478 33.7722 61.9869 33.8276C64.4788 34.2499 73.6918 36.0426 78.1633 40.0642C78.4678 40.3341 78.6132 40.7287 78.5924 41.1371Z" fill="#FAFBFC"/>
<path id="Vector_6" d="M76.9727 63.377C74.107 70.7903 70.8261 73.0537 69.3656 73.7182C68.9572 73.9051 68.4865 73.7113 68.2789 73.3098C63.5512 64.0553 50.019 56.8566 50.019 56.8566H50.026C50.9189 56.6144 51.8118 56.3583 52.6978 56.0745H52.6909C63.039 57.7703 70.0162 66.2634 72.0859 69.1014C72.4181 69.5513 73.0895 69.5582 73.4218 69.1083C74.7923 67.2463 75.969 65.322 76.9727 63.377Z" fill="#C0CCD7"/>
<path id="Vector_7" d="M66.0294 74.5695L56.4357 76.7707C55.6051 76.9645 54.8368 77.3729 54.2207 77.9543L49.2093 82.6612L34.4381 97.1209C34.4935 96.8717 35.2203 93.3623 35.4279 88.607C35.6425 83.5956 35.2964 77.2068 32.9845 71.787C32.4585 70.5549 31.8355 69.3782 31.0949 68.2707C30.6796 67.6477 31.0118 66.8102 31.7455 66.6717L59.0245 61.508C59.8136 61.3558 60.6165 61.6119 61.1703 62.1864C62.8176 63.903 65.9948 68.0353 66.0294 74.5695Z" fill="white"/>
<path id="Vector_8" d="M76.1698 54.8703C75.886 55.8047 75.5607 56.753 75.2007 57.6875C74.6816 59.0442 74.0863 60.387 73.3941 61.6675C73.1795 62.0759 72.6189 62.1451 72.3005 61.806C70.833 60.2555 66.8807 56.4415 61.2117 53.8251C60.7618 53.6174 60.3049 53.4167 59.8342 53.2229C59.1074 52.9253 58.3599 52.6484 57.5846 52.4061C57.2593 52.3023 57.0932 51.9423 57.2385 51.6309C57.4393 51.2225 57.7162 50.6134 58.0415 49.8243L65.6555 44.7367C66.0224 44.4875 66.5207 44.7159 66.5761 45.152L67.3167 50.9041C67.3583 51.2502 67.6974 51.4855 68.0435 51.4024L73.7471 50.025C74.1624 49.9212 74.5916 50.1565 74.73 50.5649L76.1698 54.8703Z" fill="#DDE4E9"/>
<path id="Vector_9" d="M73.2004 45.4631C74.0337 45.4631 74.7093 44.5117 74.7093 43.3381C74.7093 42.1645 74.0337 41.2131 73.2004 41.2131C72.367 41.2131 71.6914 42.1645 71.6914 43.3381C71.6914 44.5117 72.367 45.4631 73.2004 45.4631Z" fill="#DDE4E9"/>
<path id="Vector_10" d="M59.5917 9.80203C59.5917 9.80203 48.4683 14.2251 44.8758 23.1612C41.2765 32.1042 42.8893 43.3383 42.8893 43.3383C42.8893 43.3383 23.162 38.4031 22.3037 25.4177C21.8953 19.2919 24.6087 14.1905 27.2736 10.3281C31.1775 4.67987 36.6804 1.46121 42.8893 0.817481C43.9898 0.69981 45.0419 0.713653 46.0456 0.824403C54.5872 1.73809 59.5917 9.80203 59.5917 9.80203Z" fill="#EBF0F2"/>
<path id="Vector_11" d="M46.046 0.824403C40.3285 3.46855 38.1274 11.6156 38.1274 11.6156C33.8635 8.40382 27.2739 10.3281 27.2739 10.3281C31.1778 4.67987 36.6807 1.46121 42.8896 0.817481C43.9902 0.69981 45.0423 0.713653 46.046 0.824403Z" fill="#DDE4E9"/>
<path id="Vector_12" d="M50.8897 78.5497C52.9976 77.9208 54.1943 75.6948 53.5627 73.5776C52.9311 71.4605 50.7103 70.254 48.6024 70.8828C46.4944 71.5117 45.2977 73.7378 45.9293 75.8549C46.5609 77.9721 48.7817 79.1786 50.8897 78.5497Z" fill="#EBF0F2"/>
<path id="Vector_13" d="M47.4697 67.0855L47.4638 67.0873C47.2395 67.1542 47.1121 67.3911 47.1793 67.6164L47.9131 70.0761C47.9803 70.3014 48.2167 70.4298 48.441 70.3628L48.447 70.3611C48.6713 70.2941 48.7986 70.0573 48.7314 69.832L47.9976 67.3723C47.9304 67.147 47.6941 67.0186 47.4697 67.0855Z" fill="#EBF0F2"/>
<path id="Vector_14" d="M42.0259 72.8613L42.0244 72.8674C41.9705 73.096 42.1115 73.3256 42.3394 73.3803L44.8271 73.9774C45.0549 74.0321 45.2834 73.8911 45.3373 73.6625L45.3388 73.6565C45.3927 73.4279 45.2517 73.1983 45.0239 73.1436L42.5362 72.5464C42.3083 72.4918 42.0798 72.6327 42.0259 72.8613Z" fill="#EBF0F2"/>
<path id="Vector_15" d="M44.3022 80.4886L44.3068 80.4929C44.4771 80.6546 44.7455 80.6473 44.9061 80.4767L46.66 78.6142C46.8207 78.4436 46.8128 78.1742 46.6425 78.0126L46.6379 78.0083C46.4676 77.8466 46.1992 77.8539 46.0386 78.0245L44.2846 79.887C44.124 80.0576 44.1319 80.327 44.3022 80.4886Z" fill="#EBF0F2"/>
<path id="Vector_16" d="M52.0166 82.349L52.0226 82.3472C52.2469 82.2803 52.3742 82.0434 52.307 81.8181L51.5732 79.3585C51.506 79.1332 51.2697 79.0048 51.0453 79.0717L51.0394 79.0735C50.8151 79.1404 50.6877 79.3773 50.7549 79.6026L51.4887 82.0623C51.5559 82.2876 51.7923 82.4159 52.0166 82.349Z" fill="#EBF0F2"/>
<path id="Vector_17" d="M57.459 76.5721L57.4604 76.566C57.5144 76.3374 57.3734 76.1078 57.1455 76.0531L54.6578 75.456C54.4299 75.4013 54.2015 75.5422 54.1475 75.7708L54.1461 75.7769C54.0921 76.0055 54.2331 76.2351 54.461 76.2898L56.9487 76.8869C57.1766 76.9416 57.405 76.8006 57.459 76.5721Z" fill="#EBF0F2"/>
<path id="Vector_18" d="M55.1885 68.9362L55.184 68.9319C55.0136 68.7702 54.7453 68.7775 54.5846 68.9481L52.8307 70.8106C52.67 70.9812 52.6779 71.2506 52.8483 71.4122L52.8528 71.4165C53.0232 71.5782 53.2915 71.5709 53.4522 71.4003L55.2061 69.5378C55.3667 69.3672 55.3589 69.0978 55.1885 68.9362Z" fill="#EBF0F2"/>
<path id="Vector_19" d="M51.3039 68.121L51.2979 68.1195C51.07 68.0648 50.8415 68.2058 50.7876 68.4344L50.4672 69.7916C50.4133 70.0202 50.5543 70.2499 50.7821 70.3045L50.7882 70.306C51.0161 70.3607 51.2445 70.2197 51.2985 69.9912L51.6188 68.6339C51.6728 68.4053 51.5318 68.1757 51.3039 68.121Z" fill="#EBF0F2"/>
<path id="Vector_20" d="M44.8284 70.0432L44.8241 70.0478C44.6634 70.2184 44.6713 70.4877 44.8417 70.6494L45.8533 71.6093C46.0237 71.7709 46.292 71.7637 46.4527 71.5931L46.457 71.5885C46.6176 71.4179 46.6097 71.1486 46.4394 70.9869L45.4277 70.027C45.2574 69.8654 44.989 69.8726 44.8284 70.0432Z" fill="#EBF0F2"/>
<path id="Vector_21" d="M43.2637 76.6437L43.2655 76.6497C43.3327 76.875 43.5691 77.0034 43.7934 76.9364L45.1253 76.5391C45.3496 76.4722 45.477 76.2353 45.4098 76.01L45.408 76.004C45.3408 75.7787 45.1045 75.6503 44.8801 75.7172L43.5482 76.1146C43.3239 76.1815 43.1965 76.4184 43.2637 76.6437Z" fill="#EBF0F2"/>
<path id="Vector_22" d="M48.1766 81.3114L48.1826 81.3128C48.4105 81.3675 48.6389 81.2266 48.6929 80.998L49.0132 79.6407C49.0672 79.4122 48.9262 79.1825 48.6983 79.1278L48.6923 79.1264C48.4644 79.0717 48.2359 79.2126 48.182 79.4412L47.8616 80.7985C47.8077 81.027 47.9487 81.2567 48.1766 81.3114Z" fill="#EBF0F2"/>
<path id="Vector_23" d="M54.656 79.3884L54.6603 79.3839C54.8209 79.2133 54.8131 78.9439 54.6427 78.7822L53.6311 77.8224C53.4607 77.6607 53.1924 77.668 53.0317 77.8386L53.0274 77.8431C52.8668 78.0137 52.8746 78.2831 53.045 78.4447L54.0566 79.4046C54.227 79.5663 54.4953 79.559 54.656 79.3884Z" fill="#EBF0F2"/>
<path id="Vector_24" d="M56.2207 72.7845L56.2189 72.7785C56.1517 72.5532 55.9153 72.4249 55.691 72.4918L54.359 72.8892C54.1347 72.9561 54.0074 73.193 54.0746 73.4183L54.0764 73.4243C54.1436 73.6496 54.3799 73.778 54.6042 73.711L55.9362 73.3137C56.1605 73.2467 56.2879 73.0098 56.2207 72.7845Z" fill="#EBF0F2"/>
<path id="Star 1" d="M75.4425 12.5015L76.4703 16.3189L80.2877 17.3468L76.4703 18.3746L75.4425 22.192L74.4146 18.3746L70.5972 17.3468L74.4146 16.3189L75.4425 12.5015Z" fill="#EBF0F2"/>
<path id="Star 2" d="M94.8898 43.1798L94.7281 47.1299L98.063 49.253L94.1129 49.0913L91.9897 52.4262L92.1514 48.4761L88.8166 46.353L92.7666 46.5147L94.8898 43.1798Z" fill="#EBF0F2"/>
<path id="Star 3" d="M21.8971 42.4098L24.0769 45.7079L28.0237 45.4788L24.7255 47.6586L24.9546 51.6054L22.7748 48.3072L18.828 48.5363L22.1262 46.3565L21.8971 42.4098Z" fill="#EBF0F2"/>
<circle id="Ellipse 4" cx="10.378" cy="33.9591" r="1.38437" fill="#EBF0F2"/>
<circle id="Ellipse 7" cx="2.07138" cy="67.1839" r="1.38437" fill="#EBF0F2"/>
<circle id="Ellipse 5" cx="57.4459" cy="21.5001" r="1.38437" fill="#EBF0F2"/>
<circle id="Ellipse 6" cx="87.2101" cy="27.0372" r="1.38437" fill="#EBF0F2"/>
</g>
</svg>
